<?xml version="1.0" encoding="UTF-8"?>
<!DOCTYPE svg PUBLIC "-//W3C//DTD SVG 1.1//EN" "http://www.w3.org/Graphics/SVG/1.1/DTD/svg11.dtd">
<svg xmlns="http://www.w3.org/2000/svg" version="1.1" width="512px" height="512px" style="shape-rendering:geometricPrecision; text-rendering:geometricPrecision; image-rendering:optimizeQuality; fill-rule:evenodd; clip-rule:evenodd" xmlns:xlink="http://www.w3.org/1999/xlink">
<g><path style="opacity:0.997" fill="#262a2d" d="M 200.5,-0.5 C 223.833,-0.5 247.167,-0.5 270.5,-0.5C 243.427,5.07002 226.594,21.4034 220,48.5C 219.5,62.8295 219.333,77.1628 219.5,91.5C 206.829,91.3334 194.162,91.5001 181.5,92C 174.066,94.4351 168.899,99.2684 166,106.5C 165.667,130.167 165.333,153.833 165,177.5C 163.046,184.287 158.546,187.954 151.5,188.5C 151.5,183.833 151.5,179.167 151.5,174.5C 151.5,165.167 151.5,155.833 151.5,146.5C 151.5,115.833 151.5,85.1667 151.5,54.5C 152.59,43.2275 156.257,32.8941 162.5,23.5C 171.953,10.4386 184.62,2.43863 200.5,-0.5 Z"/></g>
<g><path style="opacity:0.999" fill="#373c41" d="M 270.5,-0.5 C 307.5,-0.5 344.5,-0.5 381.5,-0.5C 381.5,12.8333 381.5,26.1667 381.5,39.5C 383.294,54.3303 379.794,67.6636 371,79.5C 367.613,82.5535 363.947,85.2202 360,87.5C 359.5,107.164 359.333,126.831 359.5,146.5C 359.5,152.833 359.5,159.167 359.5,165.5C 359.5,169.167 359.5,172.833 359.5,176.5C 359.817,180.702 359.483,184.702 358.5,188.5C 358.833,155.16 358.5,121.827 357.5,88.5C 351.45,91.0898 345.117,92.0898 338.5,91.5C 298.833,91.5 259.167,91.5 219.5,91.5C 219.333,77.1628 219.5,62.8295 220,48.5C 226.594,21.4034 243.427,5.07002 270.5,-0.5 Z"/></g>
<g><path style="opacity:0.998" fill="#afe5fe" d="M 162.5,23.5 C 156.257,32.8941 152.59,43.2275 151.5,54.5C 150.502,84.6621 150.169,114.995 150.5,145.5C 148.901,145.232 147.568,145.566 146.5,146.5C 136.889,148.944 130.723,154.944 128,164.5C 127.114,173.895 127.447,183.228 129,192.5C 132.07,198.405 136.57,202.738 142.5,205.5C 142.334,212.841 142.5,220.174 143,227.5C 146.305,230.335 149.138,230.001 151.5,226.5C 153.078,243.9 158.078,260.233 166.5,275.5C 162.707,278.051 159.374,281.051 156.5,284.5C 144.7,269.588 133.866,253.921 124,237.5C 94.8161,181.783 85.6494,123.117 96.5,61.5C 115.987,44.7477 137.987,32.081 162.5,23.5 Z"/></g>
<g><path style="opacity:0.997" fill="#afe5fe" d="M 381.5,39.5 C 429.712,67.2194 465.212,106.553 488,157.5C 509.228,207.768 514.061,259.435 502.5,312.5C 480.066,330.556 455.066,344.223 427.5,353.5C 417.818,344.659 406.485,338.992 393.5,336.5C 390.13,334.861 386.463,333.861 382.5,333.5C 378.068,308.29 365.734,287.956 345.5,272.5C 352.853,259.105 357.187,244.772 358.5,229.5C 361.673,233.419 364.84,233.419 368,229.5C 368.333,221.833 368.667,214.167 369,206.5C 370.812,204.7 372.645,203.033 374.5,201.5C 379.376,197.758 382.209,192.758 383,186.5C 383.667,179.167 383.667,171.833 383,164.5C 379.332,153.081 371.499,147.081 359.5,146.5C 359.333,126.831 359.5,107.164 360,87.5C 363.947,85.2202 367.613,82.5535 371,79.5C 379.794,67.6636 383.294,54.3303 381.5,39.5 Z"/></g>
<g><path style="opacity:1" fill="#9bc5d9" d="M 151.5,54.5 C 151.5,85.1667 151.5,115.833 151.5,146.5C 149.833,146.5 148.167,146.5 146.5,146.5C 147.568,145.566 148.901,145.232 150.5,145.5C 150.169,114.995 150.502,84.6621 151.5,54.5 Z"/></g>
<g><path style="opacity:0.996" fill="#73c7ef" d="M 96.5,61.5 C 85.6494,123.117 94.8161,181.783 124,237.5C 133.866,253.921 144.7,269.588 156.5,284.5C 143.74,298.02 135.74,314.02 132.5,332.5C 82.8936,340.431 58.8936,369.431 60.5,419.5C 26.5285,378.844 7.36188,331.844 3,278.5C -1.78127,190.249 29.3854,117.916 96.5,61.5 Z"/></g>
<g><path style="opacity:1" fill="#262a2d" d="M 358.5,188.5 C 352.416,187.584 348.249,184.251 346,178.5C 345.667,154.833 345.333,131.167 345,107.5C 344.495,104.135 343.328,101.135 341.5,98.5C 340.758,96.0202 339.758,93.6869 338.5,91.5C 345.117,92.0898 351.45,91.0898 357.5,88.5C 358.5,121.827 358.833,155.16 358.5,188.5 Z"/></g>
<g><path style="opacity:1" fill="#fe955a" d="M 219.5,91.5 C 259.167,91.5 298.833,91.5 338.5,91.5C 339.758,93.6869 340.758,96.0202 341.5,98.5C 301.335,99.3326 261.002,99.8326 220.5,100C 201.671,104.163 190.171,115.663 186,134.5C 185.333,166.833 185.333,199.167 186,231.5C 191.844,277.484 216.344,308.484 259.5,324.5C 245.767,325.014 232.433,323.014 219.5,318.5C 210.083,314.291 201.083,309.291 192.5,303.5C 182.759,295.095 174.093,285.762 166.5,275.5C 158.078,260.233 153.078,243.9 151.5,226.5C 151.5,213.833 151.5,201.167 151.5,188.5C 158.546,187.954 163.046,184.287 165,177.5C 165.333,153.833 165.667,130.167 166,106.5C 168.899,99.2684 174.066,94.4351 181.5,92C 194.162,91.5001 206.829,91.3334 219.5,91.5 Z"/></g>
<g><path style="opacity:1" fill="#febd81" d="M 341.5,98.5 C 343.328,101.135 344.495,104.135 345,107.5C 345.333,131.167 345.667,154.833 346,178.5C 348.249,184.251 352.416,187.584 358.5,188.5C 358.5,202.167 358.5,215.833 358.5,229.5C 357.187,244.772 352.853,259.105 345.5,272.5C 338.614,283.718 330.281,293.718 320.5,302.5C 311.771,308.532 302.438,313.532 292.5,317.5C 281.892,321.568 270.892,323.901 259.5,324.5C 216.344,308.484 191.844,277.484 186,231.5C 185.333,199.167 185.333,166.833 186,134.5C 190.171,115.663 201.671,104.163 220.5,100C 261.002,99.8326 301.335,99.3326 341.5,98.5 Z"/></g>
<g><path style="opacity:1" fill="#393d41" d="M 202.5,129.5 C 213.172,129.333 223.839,129.5 234.5,130C 238.861,132.226 240.361,135.726 239,140.5C 237.833,143 236,144.833 233.5,146C 223.167,146.667 212.833,146.667 202.5,146C 195.891,140.454 195.891,134.954 202.5,129.5 Z"/></g>
<g><path style="opacity:1" fill="#393d41" d="M 274.5,129.5 C 285.172,129.333 295.839,129.5 306.5,130C 313.33,135.71 312.997,141.043 305.5,146C 295.167,146.667 284.833,146.667 274.5,146C 269.845,143.103 268.345,138.937 270,133.5C 271.397,131.93 272.897,130.596 274.5,129.5 Z"/></g>
<g><path style="opacity:1" fill="#fc955b" d="M 146.5,146.5 C 148.167,146.5 149.833,146.5 151.5,146.5C 151.5,155.833 151.5,165.167 151.5,174.5C 150.5,174.5 149.5,174.5 148.5,174.5C 150.273,171.512 150.94,168.179 150.5,164.5C 143.255,165.706 140.589,169.706 142.5,176.5C 131.996,186.046 131.996,195.713 142.5,205.5C 136.57,202.738 132.07,198.405 129,192.5C 127.447,183.228 127.114,173.895 128,164.5C 130.723,154.944 136.889,148.944 146.5,146.5 Z"/></g>
<g><path style="opacity:1" fill="#fe975c" d="M 359.5,146.5 C 371.499,147.081 379.332,153.081 383,164.5C 383.667,171.833 383.667,179.167 383,186.5C 382.209,192.758 379.376,197.758 374.5,201.5C 373.957,201.44 373.624,201.107 373.5,200.5C 377.611,191.37 375.611,184.037 367.5,178.5C 369.71,171.264 367.044,166.93 359.5,165.5C 359.5,159.167 359.5,152.833 359.5,146.5 Z"/></g>
<g><path style="opacity:1" fill="#3c3f42" d="M 228.5,185.5 C 223.838,192.502 218.505,193.169 212.5,187.5C 211.89,186.609 211.557,185.609 211.5,184.5C 211.187,180.958 211.521,177.625 212.5,174.5C 214.144,174.714 215.644,174.38 217,173.5C 217.667,169.167 217.667,164.833 217,160.5C 215.644,159.62 214.144,159.286 212.5,159.5C 211.551,155.523 213.217,152.689 217.5,151C 221.354,150.164 224.521,151.331 227,154.5C 228.451,164.729 228.951,175.062 228.5,185.5 Z"/></g>
<g><path style="opacity:1" fill="#3b3e43" d="M 298.5,185.5 C 293.153,193.009 287.487,193.342 281.5,186.5C 281.5,182.167 281.5,177.833 281.5,173.5C 286.99,175.212 288.99,173.045 287.5,167C 288.99,160.955 286.99,158.788 281.5,160.5C 281.916,153.585 285.583,150.418 292.5,151C 294.286,151.785 295.786,152.951 297,154.5C 298.451,164.729 298.951,175.062 298.5,185.5 Z"/></g>
<g><path style="opacity:1" fill="#fafbfb" d="M 212.5,159.5 C 214.144,159.286 215.644,159.62 217,160.5C 217.667,164.833 217.667,169.167 217,173.5C 215.644,174.38 214.144,174.714 212.5,174.5C 211.89,173.609 211.557,172.609 211.5,171.5C 211.237,167.4 211.57,163.4 212.5,159.5 Z"/></g>
<g><path style="opacity:1" fill="#fdfdfd" d="M 281.5,173.5 C 281.5,169.167 281.5,164.833 281.5,160.5C 286.99,158.788 288.99,160.955 287.5,167C 288.99,173.045 286.99,175.212 281.5,173.5 Z"/></g>
<g><path style="opacity:1" fill="#ef6b31" d="M 148.5,174.5 C 146.297,174.604 144.297,175.27 142.5,176.5C 140.589,169.706 143.255,165.706 150.5,164.5C 150.94,168.179 150.273,171.512 148.5,174.5 Z"/></g>
<g><path style="opacity:1" fill="#ef6c32" d="M 359.5,165.5 C 367.044,166.93 369.71,171.264 367.5,178.5C 364.888,177.629 362.221,176.963 359.5,176.5C 359.5,172.833 359.5,169.167 359.5,165.5 Z"/></g>
<g><path style="opacity:1" fill="#ff965a" d="M 252.5,170.5 C 256.287,169.814 259.454,170.814 262,173.5C 265.149,184.764 267.983,196.098 270.5,207.5C 268.614,223.85 260.447,228.517 246,221.5C 243.01,217.698 241.51,213.365 241.5,208.5C 243.681,197.108 246.181,185.774 249,174.5C 250.032,172.973 251.199,171.64 252.5,170.5 Z"/></g>
<g><path style="opacity:1" fill="#ad8b6d" d="M 211.5,171.5 C 211.557,172.609 211.89,173.609 212.5,174.5C 211.521,177.625 211.187,180.958 211.5,184.5C 210.167,180.167 210.167,175.833 211.5,171.5 Z"/></g>
<g><path style="opacity:1" fill="#fefcfb" d="M 148.5,174.5 C 149.5,174.5 150.5,174.5 151.5,174.5C 151.5,179.167 151.5,183.833 151.5,188.5C 151.5,201.167 151.5,213.833 151.5,226.5C 149.138,230.001 146.305,230.335 143,227.5C 142.5,220.174 142.334,212.841 142.5,205.5C 131.996,195.713 131.996,186.046 142.5,176.5C 144.297,175.27 146.297,174.604 148.5,174.5 Z"/></g>
<g><path style="opacity:1" fill="#fdfbfa" d="M 359.5,176.5 C 362.221,176.963 364.888,177.629 367.5,178.5C 375.611,184.037 377.611,191.37 373.5,200.5C 373.624,201.107 373.957,201.44 374.5,201.5C 372.645,203.033 370.812,204.7 369,206.5C 368.667,214.167 368.333,221.833 368,229.5C 364.84,233.419 361.673,233.419 358.5,229.5C 358.5,215.833 358.5,202.167 358.5,188.5C 359.483,184.702 359.817,180.702 359.5,176.5 Z"/></g>
<g><path style="opacity:1" fill="#fb955a" d="M 298.5,185.5 C 298.497,197.376 293.33,200.709 283,195.5C 281.711,192.649 281.211,189.649 281.5,186.5C 287.487,193.342 293.153,193.009 298.5,185.5 Z"/></g>
<g><path style="opacity:1" fill="#fc965b" d="M 228.5,185.5 C 229.674,192.84 226.674,197.173 219.5,198.5C 212.798,197.407 210.465,193.741 212.5,187.5C 218.505,193.169 223.838,192.502 228.5,185.5 Z"/></g>
<g><path style="opacity:1" fill="#c52e32" d="M 232.5,245.5 C 232.953,246.458 233.619,247.292 234.5,248C 247.829,248.5 261.163,248.667 274.5,248.5C 267.018,249.492 259.352,249.825 251.5,249.5C 240.959,247.443 231.959,250.11 224.5,257.5C 221.484,252.616 219.984,247.282 220,241.5C 220.5,241 221,240.5 221.5,240C 224.817,239.502 228.15,239.335 231.5,239.5C 231.205,241.735 231.539,243.735 232.5,245.5 Z"/></g>
<g><path style="opacity:1" fill="#fefefe" d="M 278.5,239.5 C 278.663,241.857 278.497,244.19 278,246.5C 277.184,247.823 276.017,248.489 274.5,248.5C 261.163,248.667 247.829,248.5 234.5,248C 233.619,247.292 232.953,246.458 232.5,245.5C 232.5,243.5 232.5,241.5 232.5,239.5C 247.833,239.5 263.167,239.5 278.5,239.5 Z"/></g>
<g><path style="opacity:1" fill="#bf1724" d="M 278.5,239.5 C 282.514,239.334 286.514,239.501 290.5,240C 291.589,251.369 287.589,260.703 278.5,268C 276.423,269.705 274.09,270.872 271.5,271.5C 269.326,259.996 262.659,252.663 251.5,249.5C 259.352,249.825 267.018,249.492 274.5,248.5C 276.017,248.489 277.184,247.823 278,246.5C 278.497,244.19 278.663,241.857 278.5,239.5 Z"/></g>
<g><path style="opacity:1" fill="#fe3d3c" d="M 251.5,249.5 C 262.659,252.663 269.326,259.996 271.5,271.5C 252.032,279.79 236.365,275.123 224.5,257.5C 231.959,250.11 240.959,247.443 251.5,249.5 Z"/></g>
<g><path style="opacity:1" fill="#fe3d3c" d="M 345.5,272.5 C 365.734,287.956 378.068,308.29 382.5,333.5C 387.134,362.151 376.801,383.317 351.5,397C 338.918,402.228 325.918,405.728 312.5,407.5C 312.929,403.743 312.263,400.243 310.5,397C 306.845,394.665 303.679,395.165 301,398.5C 300.5,422.831 300.333,447.164 300.5,471.5C 299.504,457.677 299.171,443.677 299.5,429.5C 299.5,422.833 299.5,416.167 299.5,409.5C 271.165,410.799 242.832,410.799 214.5,409.5C 214.979,405.089 214.312,400.922 212.5,397C 208.802,394.675 205.635,395.175 203,398.5C 202.5,423.164 202.333,447.831 202.5,472.5C 201.508,465.018 201.175,457.352 201.5,449.5C 201.5,435.5 201.5,421.5 201.5,407.5C 179.892,405.805 161.059,397.805 145,383.5C 139.747,376.993 136.08,369.66 134,361.5C 132.676,351.884 132.176,342.217 132.5,332.5C 135.74,314.02 143.74,298.02 156.5,284.5C 159.374,281.051 162.707,278.051 166.5,275.5C 174.093,285.762 182.759,295.095 192.5,303.5C 181.792,305.039 174.958,311.039 172,321.5C 169.238,345.812 177.405,365.646 196.5,381C 228.241,403.688 262.241,407.688 298.5,393C 330.746,379.439 345.58,355.272 343,320.5C 339.247,309.922 331.747,303.922 320.5,302.5C 330.281,293.718 338.614,283.718 345.5,272.5 Z"/></g>
<g><path style="opacity:1" fill="#dc1528" d="M 320.5,302.5 C 331.747,303.922 339.247,309.922 343,320.5C 345.58,355.272 330.746,379.439 298.5,393C 262.241,407.688 228.241,403.688 196.5,381C 177.405,365.646 169.238,345.812 172,321.5C 174.958,311.039 181.792,305.039 192.5,303.5C 201.083,309.291 210.083,314.291 219.5,318.5C 219.5,323.833 219.5,329.167 219.5,334.5C 216.892,351.867 222.559,365.7 236.5,376C 252.014,384.182 266.681,382.849 280.5,372C 287.293,365.247 290.96,357.08 291.5,347.5C 292.494,337.681 292.827,327.681 292.5,317.5C 302.438,313.532 311.771,308.532 320.5,302.5 Z"/></g>
<g><path style="opacity:0.989" fill="#74c7ef" d="M 502.5,312.5 C 494.313,352.535 477.313,388.202 451.5,419.5C 453.584,393.838 445.584,371.838 427.5,353.5C 455.066,344.223 480.066,330.556 502.5,312.5 Z"/></g>
<g><path style="opacity:1" fill="#ef6b31" d="M 292.5,317.5 C 292.827,327.681 292.494,337.681 291.5,347.5C 291.666,338.161 291.5,328.827 291,319.5C 282.579,328.8 272.079,334.634 259.5,337C 245.943,339.451 232.609,338.617 219.5,334.5C 219.5,329.167 219.5,323.833 219.5,318.5C 232.433,323.014 245.767,325.014 259.5,324.5C 270.892,323.901 281.892,321.568 292.5,317.5 Z"/></g>
<g><path style="opacity:1" fill="#fe9559" d="M 291.5,347.5 C 290.96,357.08 287.293,365.247 280.5,372C 266.681,382.849 252.014,384.182 236.5,376C 222.559,365.7 216.892,351.867 219.5,334.5C 232.609,338.617 245.943,339.451 259.5,337C 272.079,334.634 282.579,328.8 291,319.5C 291.5,328.827 291.666,338.161 291.5,347.5 Z"/></g>
<g><path style="opacity:0.996" fill="#db1428" d="M 132.5,332.5 C 132.176,342.217 132.676,351.884 134,361.5C 136.08,369.66 139.747,376.993 145,383.5C 161.059,397.805 179.892,405.805 201.5,407.5C 201.5,421.5 201.5,435.5 201.5,449.5C 185.63,461.557 174.963,477.224 169.5,496.5C 125.651,481.294 89.3179,455.628 60.5,419.5C 58.8936,369.431 82.8936,340.431 132.5,332.5 Z"/></g>
<g><path style="opacity:1" fill="#dc1528" d="M 382.5,333.5 C 386.463,333.861 390.13,334.861 393.5,336.5C 402.311,383.7 383.311,412.866 336.5,424C 328.611,426.012 320.611,427.179 312.5,427.5C 312.5,420.833 312.5,414.167 312.5,407.5C 325.918,405.728 338.918,402.228 351.5,397C 376.801,383.317 387.134,362.151 382.5,333.5 Z"/></g>
<g><path style="opacity:0.993" fill="#fe3c3c" d="M 393.5,336.5 C 406.485,338.992 417.818,344.659 427.5,353.5C 445.584,371.838 453.584,393.838 451.5,419.5C 406.168,473.004 348.501,503.67 278.5,511.5C 263.5,511.5 248.5,511.5 233.5,511.5C 211.531,509.305 190.197,504.305 169.5,496.5C 174.963,477.224 185.63,461.557 201.5,449.5C 201.175,457.352 201.508,465.018 202.5,472.5C 202.5,473.167 202.5,473.833 202.5,474.5C 202.334,479.511 202.501,484.511 203,489.5C 205.497,491.478 208.331,491.978 211.5,491C 212.701,490.097 213.535,488.931 214,487.5C 214.499,482.511 214.666,477.511 214.5,472.5C 214.5,461.833 214.5,451.167 214.5,440.5C 224.659,435.894 235.325,432.728 246.5,431C 264.173,430.617 281.84,430.117 299.5,429.5C 299.171,443.677 299.504,457.677 300.5,471.5C 300.5,472.167 300.5,472.833 300.5,473.5C 300.334,478.511 300.501,483.511 301,488.5C 303.167,491.287 306.001,492.12 309.5,491C 310.701,490.097 311.535,488.931 312,487.5C 312.815,482.648 312.648,477.981 311.5,473.5C 312.483,458.245 312.817,442.911 312.5,427.5C 320.611,427.179 328.611,426.012 336.5,424C 383.311,412.866 402.311,383.7 393.5,336.5 Z"/></g>
<g><path style="opacity:1" fill="#fff7f7" d="M 214.5,409.5 C 214.5,419.833 214.5,430.167 214.5,440.5C 214.5,451.167 214.5,461.833 214.5,472.5C 211.316,477.031 207.316,477.698 202.5,474.5C 202.5,473.833 202.5,473.167 202.5,472.5C 202.333,447.831 202.5,423.164 203,398.5C 205.635,395.175 208.802,394.675 212.5,397C 214.312,400.922 214.979,405.089 214.5,409.5 Z"/></g>
<g><path style="opacity:1" fill="#fefafa" d="M 312.5,407.5 C 312.5,414.167 312.5,420.833 312.5,427.5C 312.817,442.911 312.483,458.245 311.5,473.5C 310.608,475.714 308.942,476.714 306.5,476.5C 303.898,476.533 301.898,475.533 300.5,473.5C 300.5,472.833 300.5,472.167 300.5,471.5C 300.333,447.164 300.5,422.831 301,398.5C 303.679,395.165 306.845,394.665 310.5,397C 312.263,400.243 312.929,403.743 312.5,407.5 Z"/></g>
<g><path style="opacity:1" fill="#dc1428" d="M 214.5,409.5 C 242.832,410.799 271.165,410.799 299.5,409.5C 299.5,416.167 299.5,422.833 299.5,429.5C 281.84,430.117 264.173,430.617 246.5,431C 235.325,432.728 224.659,435.894 214.5,440.5C 214.5,430.167 214.5,419.833 214.5,409.5 Z"/></g>
<g><path style="opacity:1" fill="#dd192a" d="M 300.5,473.5 C 301.898,475.533 303.898,476.533 306.5,476.5C 308.942,476.714 310.608,475.714 311.5,473.5C 312.648,477.981 312.815,482.648 312,487.5C 311.535,488.931 310.701,490.097 309.5,491C 306.001,492.12 303.167,491.287 301,488.5C 300.501,483.511 300.334,478.511 300.5,473.5 Z"/></g>
<g><path style="opacity:1" fill="#de192a" d="M 214.5,472.5 C 214.666,477.511 214.499,482.511 214,487.5C 213.535,488.931 212.701,490.097 211.5,491C 208.331,491.978 205.497,491.478 203,489.5C 202.501,484.511 202.334,479.511 202.5,474.5C 207.316,477.698 211.316,477.031 214.5,472.5 Z"/></g>
</svg>
